<?xml version="1.0" encoding="UTF-8"?>
<svg fill="none" viewBox="0 0 24 24" xmlns="http://www.w3.org/2000/svg">
<path d="M4.8 14.4H2.4C1.76348 14.4 1.15303 14.1471 0.702944 13.6971C0.252856 13.247 0 12.6365 0 12V2.4C0 1.08 1.08 0 2.4 0H16.8C17.4365 0 18.047 0.252856 18.4971 0.702944C18.9471 1.15303 19.2 1.76348 19.2 2.4V4.8H21.6C22.2365 4.8 22.847 5.05286 23.2971 5.50294C23.7471 5.95303 24 6.56348 24 7.2V22.8C23.9967 23.0349 23.9245 23.2636 23.7925 23.4579C23.6604 23.6521 23.4742 23.8033 23.257 23.8928C23.0398 23.9822 22.8011 24.0059 22.5706 23.961C22.34 23.9161 22.1277 23.8044 21.96 23.64L17.496 19.2H7.2C6.56348 19.2 5.95303 18.9471 5.50294 18.4971C5.05286 18.047 4.8 17.4365 4.8 16.8V14.4ZM4.8 12V7.2C4.8 5.88 5.88 4.8 7.2 4.8H16.8V2.4H2.4V12H4.8ZM21.6 7.2H7.2V16.8H18C18.3165 16.8045 18.6184 16.9339 18.84 17.16L21.6 19.908V7.2Z" fill="#fff"/>
</svg>
