<svg xmlns="http://www.w3.org/2000/svg" width="160" height="20" viewBox="0 0 128 16"><path fill="#f5f9fa" d="M0 0h128v16H0z"/><path fill="#4E5C6E" fill-opacity=".2" d="M6.4 4.8A3.2 3.2 0 1 1 3.2 8a3.2 3.2 0 0 1 3.2-3.2zm12.8 0A3.2 3.2 0 1 1 16 8a3.2 3.2 0 0 1 3.2-3.2zm12.8 0A3.2 3.2 0 1 1 28.8 8 3.2 3.2 0 0 1 32 4.8zm12.8 0A3.2 3.2 0 1 1 41.6 8a3.2 3.2 0 0 1 3.2-3.2zm12.8 0A3.2 3.2 0 1 1 54.4 8a3.2 3.2 0 0 1 3.2-3.2zm12.8 0A3.2 3.2 0 1 1 67.2 8a3.2 3.2 0 0 1 3.2-3.2zm12.8 0A3.2 3.2 0 1 1 80 8a3.2 3.2 0 0 1 3.2-3.2zm12.8 0A3.2 3.2 0 1 1 92.8 8 3.2 3.2 0 0 1 96 4.8zm12.8 0a3.2 3.2 0 1 1-3.2 3.2 3.2 3.2 0 0 1 3.2-3.2zm12.8 0a3.2 3.2 0 1 1-3.2 3.2 3.2 3.2 0 0 1 3.2-3.2z"/><g><path fill="#4E5C6E" d="M-42.7 3.84a4.16 4.16 0 1 1 0 8.32 4.16 4.16 0 1 1 0-8.32zm12.8-.64a4.8 4.8 0 1 1 0 9.6 4.8 4.8 0 1 1 0-9.6zm12.8-.64a5.44 5.44 0 0 1 0 10.88 5.44 5.44 0 0 1 0-10.88z"/><animateTransform attributeName="transform" type="translate" values="23 0;36 0;49 0;62 0;74.5 0;87.5 0;100 0;113 0;125.5 0;138.5 0;151.5 0;164.5 0;178 0" calcMode="discrete" dur="1170ms" repeatCount="indefinite"/></g></svg>