<svg width="28" height="28" viewBox="0 0 28 28" fill="none" xmlns="http://www.w3.org/2000/svg">
<path d="M14.8139 2.2064V1.27685C14.8139 0.763452 14.3977 0.34729 13.8843 0.34729H0.929556C0.416162 0.34729 0 0.763452 0 1.27685V2.2064C0 2.7198 0.416162 3.13596 0.929556 3.13596H13.8843C14.3977 3.13596 14.8139 2.7198 14.8139 2.2064Z" fill="#767676"/>
<path d="M12.1387 6.20349H0.929556C0.416162 6.20349 0 6.61965 0 7.13305V8.0626C0 8.576 0.416162 8.99216 0.929556 8.99216H12.1387C12.6521 8.99216 13.0683 8.576 13.0683 8.0626V7.13305C13.0683 6.61965 12.6521 6.20349 12.1387 6.20349Z" fill="#767676"/>
<path d="M10.3929 12.0597H0.929556C0.416162 12.0597 0 12.4759 0 12.9892V13.9188C0 14.4322 0.416162 14.8484 0.929556 14.8484H10.3929C10.9063 14.8484 11.3225 14.4322 11.3225 13.9188V12.9892C11.3225 12.4759 10.9063 12.0597 10.3929 12.0597Z" fill="#767676"/>
<path d="M8.6472 18.5665H0.929556C0.416162 18.5665 0 18.9827 0 19.4961V20.4256C0 20.939 0.416162 21.3552 0.929556 21.3552H8.6472C9.1605 21.3552 9.57675 20.939 9.57675 20.4256V19.4961C9.57675 18.9827 9.16059 18.5665 8.6472 18.5665Z" fill="#767676"/>
<path d="M6.9014 24.4229H0.929556C0.416162 24.4229 0 24.839 0 25.3524V26.282C0 26.7954 0.416162 27.2115 0.929556 27.2115H6.9014C7.4147 27.2115 7.83095 26.7954 7.83095 26.282V25.3524C7.83095 24.839 7.41479 24.4229 6.9014 24.4229Z" fill="#767676"/>
<path d="M27.7277 20.1599L27.0704 19.5026C26.8961 19.3283 26.6597 19.2303 26.4131 19.2303C26.1666 19.2303 25.9301 19.3283 25.7558 19.5026L22.5587 22.6996V1.74157C22.5587 1.22817 22.1426 0.812012 21.6292 0.812012H20.6996C20.1862 0.812012 19.7701 1.22817 19.7701 1.74157V22.6995L16.5731 19.5025C16.3987 19.3282 16.1623 19.2302 15.9158 19.2302C15.6692 19.2302 15.4328 19.3282 15.2585 19.5025L14.6011 20.1598C14.2382 20.5228 14.2382 21.1114 14.6011 21.4744L20.5071 27.3804C20.6887 27.5619 20.9265 27.6527 21.1644 27.6527C21.4023 27.6527 21.6402 27.5619 21.8217 27.3804L27.7277 21.4744C28.0907 21.1114 28.0907 20.5228 27.7277 20.1599Z" fill="#767676"/>
</svg>
